<?xml version="1.0" encoding="iso-8859-1"?>
<!-- Uploaded to: SVG Repo, www.svgrepo.com, Generator: SVG Repo Mixer Tools -->
<svg height="800px" width="800px" version="1.1" id="Layer_1" xmlns="http://www.w3.org/2000/svg" xmlns:xlink="http://www.w3.org/1999/xlink" 
	 viewBox="0 0 512 512" xml:space="preserve">
<path style="fill:#E0E0E3;" d="M495.792,351.535H442.27c-2.577,0-4.772-1.873-5.175-4.419l-3.28-20.69l-2.591-16.321L410.848,181.53
	l-11.086-12.048l-22.037-23.949l-19.184-20.856l8.976,194.09l1.097,23.709l4.326,93.686l1.108,23.677l2.16,46.68
	c0.138,2.985-2.245,5.482-5.234,5.482H141.026c-2.988,0-5.372-2.496-5.234-5.482l2.16-46.68l6.531-141.072l8.965-193.755l0.01-0.334
	l-14.336,15.579l-37.972,41.273L80.775,310.115l-2.591,16.311l-3.28,20.69c-0.403,2.545-2.598,4.419-5.175,4.419H16.207
	c-3.289,0-5.765-2.995-5.146-6.224l3.615-18.884l3.135-16.332l28.891-150.862L151.683,38.201c1.724-1.975,3.709-3.647,5.904-4.974
	c1.661-1.045,3.459-1.86,5.339-2.476c2.508-0.825,5.183-1.275,7.889-1.275h15.82l0.972-1.055L213.729,0h83.352l25.14,27.345
	l1.003,1.087l0.951,1.045c0,0,9.644,0.031,16.091,0.042h2.288c1.829,0,3.605,0.24,5.339,0.711c4.775,1.264,9.101,4.159,12.424,7.973
	l57.94,66.8l21.358,24.628l25.684,29.602l28.891,150.862l3.135,16.332l3.615,18.884C501.557,348.54,499.081,351.535,495.792,351.535
	z"/>
<g>
	<path style="fill:#D2D1D3;" d="M255.406,447.827c-4.512,0-8.169-3.657-8.169-8.169V174.699c0-4.512,3.657-8.169,8.169-8.169
		s8.169,3.657,8.169,8.169v264.959C263.575,444.168,259.918,447.827,255.406,447.827z"/>
	<path style="fill:#D2D1D3;" d="M340.266,29.523v39.353c0,4.368-1.318,8.627-3.769,12.232l-63.098,92.79
		c-8.507,12.493-27.481,12.493-35.987,0l-63.098-92.79c-2.45-3.605-3.769-7.864-3.769-12.232V29.587
		c0.12-0.032,0.229-0.076,0.348-0.109h15.739l27.099-29.474h83.346l27.099,29.474C324.179,29.479,333.818,29.511,340.266,29.523z"/>
</g>
<path style="fill:#ADACB2;" d="M213.73,0l32.227,93.692c3.092,8.989,15.806,8.989,18.898,0L297.082,0H213.73z"/>
<g>
	<path style="fill:#D2D1D3;" d="M374.038,459.832c-0.368,0.024-0.723,0.036-1.091,0.036h-18.533
		c-43.801,0-79.445-35.644-79.445-79.445V342.48c0-13.102,10.612-23.715,23.715-23.715h68.832l1.102,23.715l4.328,93.673
		L374.038,459.832z"/>
	<path style="fill:#D2D1D3;" d="M237.039,342.48v37.943c0,43.801-35.644,79.445-79.445,79.445h-18.533
		c-0.368,0-0.736-0.011-1.102-0.036l6.521-141.066h68.844C226.414,318.765,237.039,329.378,237.039,342.48z"/>
</g>
<path style="fill:#00D8DE;" d="M332.092,188.796H294.15c-4.512,0-8.169-3.657-8.169-8.169c0-4.512,3.657-8.169,8.169-8.169h37.942
	c4.512,0,8.169,3.657,8.169,8.169C340.261,185.139,336.604,188.796,332.092,188.796z"/>
<g>
	<path style="fill:#D2D1D3;" d="M221.613,218.703c-4.512,0-8.169-3.657-8.169-8.169v-3.558c0-4.512,3.657-8.169,8.169-8.169
		c4.512,0,8.169,3.657,8.169,8.169v3.558C229.782,215.045,226.125,218.703,221.613,218.703z"/>
	<path style="fill:#D2D1D3;" d="M221.613,299.07c-4.512,0-8.169-3.657-8.169-8.169v-3.558c0-4.512,3.657-8.169,8.169-8.169
		c4.512,0,8.169,3.657,8.169,8.169v3.558C229.782,295.413,226.125,299.07,221.613,299.07z"/>
</g>
<g>
	<polygon style="fill:#E0E0E3;" points="247.237,97.413 247.237,162.69 186.633,73.57 186.633,29.479 187.602,28.422 213.732,0.004 
			"/>
	<polygon style="fill:#E0E0E3;" points="297.082,0 263.575,97.413 263.575,162.686 324.178,73.573 324.178,29.479 	"/>
</g>
<path style="fill:#D2D1D3;" d="M263.575,474.095V512h-16.338v-37.905c0-4.51,3.659-8.169,8.169-8.169
	S263.575,469.587,263.575,474.095z"/>
<g>
	<path style="fill:#E0E0E3;" d="M372.947,436.153h-18.533c-30.782,0-55.73-24.948-55.73-55.73V342.48h69.935L372.947,436.153z"/>
	<path style="fill:#E0E0E3;" d="M139.058,436.153h18.533c30.782,0,55.73-24.948,55.73-55.73V342.48h-69.935L139.058,436.153z"/>
</g>
<g>
	<path style="fill:#00D8DE;" d="M497.319,326.43h-63.502l-2.592-16.328c0.087-0.01,0.163-0.01,0.251-0.01h62.717L497.319,326.43z"/>
	<path style="fill:#00D8DE;" d="M80.772,310.114L78.18,326.43H14.679l3.126-16.338h62.619
		C80.543,310.092,80.653,310.092,80.772,310.114z"/>
</g>
<g>
	<path style="fill:#D2D1D3;" d="M153.458,107.353v17.324l-14.336,15.579l6.207-33.656
		C146.228,101.7,153.458,102.358,153.458,107.353z"/>
	<path style="fill:#D2D1D3;" d="M358.551,107.353v17.324l14.336,15.579l-6.207-33.656
		C365.781,101.7,358.551,102.358,358.551,107.353z"/>
	<polygon style="fill:#D2D1D3;" points="153.448,125.012 153.458,124.677 153.458,124.991 	"/>
</g>
</svg>